<?xml version="1.0" encoding="UTF-8"?>
<svg id="Capa_1" data-name="Capa 1" xmlns="http://www.w3.org/2000/svg" viewBox="0 0 776 776">
  <defs>
    <style>
      .cls-1 {
        fill: #fff;
      }

      .cls-2 {
        fill: #f01b4d;
      }
    </style>
  </defs>
  <rect class="cls-2" width="776" height="776"/>
  <g>
    <path d="M198.77,338h-46.69c-23.92,0-43.31,19.39-43.31,43.31v13.38c0,23.92,19.39,43.31,43.31,43.31h43.64c12.73,0,23.04-10.32,23.04-23.04v-36.96h-55v20h30v20h-41.69c-10.11,0-18.31-8.2-18.31-18.31v-23.38c0-10.11,8.2-18.31,18.31-18.31h66.69c0-11.05-8.95-20-20-20Z"/>
    <path d="M355.21,338h-25v40h-62.8v-40h0c-13.81,0-25,11.19-25,25v25s0,50,0,50h25v-40h62.8v40s0,0,0,0c13.81,0,25-11.19,25-25v-75Z"/>
    <path d="M408.86,438v-100h0c-13.81,0-25,11.19-25,25v50c0,13.81,11.19,25,25,25h0Z"/>
    <path d="M617.16,358h-5.67l29.76,51.44s.04.06.06.09l-28.36-49.03c-.89-1.55,6-2.5,4.21-2.5Z"/>
    <path d="M579.39,358h20.88c1.79,0-5.11.95-4.21,2.5l28.36,49.03,5.82,10.06s-.03-.04-.04-.06l10.68,18.47h0c14.55,0,26.35-11.8,26.35-26.35v-48.65c0-13.81-11.19-25-25-25v50.49l-21.97-37.95c-4.49-7.76-12.79-12.54-21.76-12.54h-44.14v74.98c0,13.82,11.2,25.02,25.02,25.02h0v-80Z"/>
    <path class="cls-1" d="M483.36,444.37c-31.13,0-56.37-25.24-56.37-56.37s25.24-56.37,56.37-56.37,56.37,25.24,56.37,56.37-25.24,56.37-56.37,56.37ZM517.54,388c0-18.88-15.31-34.19-34.19-34.19s-34.19,15.31-34.19,34.19,15.31,34.19,34.19,34.19,34.19-15.31,34.19-34.19Z"/>
  </g>
</svg>