<?xml version="1.0" encoding="UTF-8"?>
<svg xmlns="http://www.w3.org/2000/svg" xmlns:xlink="http://www.w3.org/1999/xlink" viewBox="0 0 618 225.9">
  <defs>
    <style>
      .cls-1 {
        fill: #b3cacc;
      }

      .cls-2 {
        fill: #6c7079;
      }

      .cls-3 {
        isolation: isolate;
      }

      .cls-4 {
        opacity: .16;
      }

      .cls-4, .cls-5 {
        mix-blend-mode: multiply;
      }

      .cls-6 {
        clip-path: url(#clippath);
      }

      .cls-5 {
        fill: #1a1a1a;
        opacity: .5;
      }
    </style>
    <clipPath id="clippath">
      <path class="cls-1" d="M325.89,36.03C274.19,19.75,220.67,7.57,165.68,0,110.68,7.57,57.16,19.75,5.46,36.03,2.03,57.38,0,84.03,0,112.95s2.03,55.57,5.46,76.92c51.7,16.28,105.22,28.46,160.22,36.03,55-7.57,108.52-19.75,160.22-36.03,3.42-21.34,5.46-48,5.46-76.92s-2.03-55.57-5.46-76.92Z"/>
    </clipPath>
  </defs>
  <g class="cls-3">
    <g id="Capa_1" data-name="Capa 1">
      <g>
        <g>
          <path class="cls-2" d="M386.52,66.49v-32.47h14.24c3.46,0,6.53.67,9.21,2.02,2.68,1.34,4.76,3.24,6.24,5.68,1.48,2.44,2.23,5.29,2.23,8.54s-.74,6.09-2.23,8.53c-1.49,2.44-3.57,4.34-6.24,5.68-2.67,1.34-5.74,2.02-9.21,2.02h-14.24ZM392.55,61.39h7.84c2.44,0,4.55-.46,6.33-1.39,1.78-.93,3.17-2.23,4.17-3.9,1.01-1.67,1.51-3.62,1.51-5.84s-.5-4.25-1.51-5.89c-1.01-1.64-2.4-2.92-4.17-3.85-1.78-.93-3.89-1.39-6.33-1.39h-7.84v22.27Z"/>
          <path class="cls-2" d="M425.76,66.49v-32.47h23.7v5.1h-17.67v22.27h18.32v5.1h-24.35ZM431.33,52.48v-4.96h16.14v4.96h-16.14Z"/>
          <path class="cls-2" d="M467.84,66.95c-2.53,0-4.95-.36-7.26-1.09s-4.15-1.66-5.54-2.81l2.09-4.69c1.3,1.02,2.91,1.87,4.82,2.55,1.92.68,3.88,1.02,5.89,1.02,1.7,0,3.08-.19,4.13-.56s1.83-.87,2.32-1.51c.5-.63.74-1.35.74-2.16,0-.99-.36-1.79-1.07-2.39-.71-.6-1.63-1.08-2.76-1.44s-2.38-.68-3.76-.98c-1.38-.29-2.75-.66-4.13-1.09-1.38-.43-2.64-.98-3.78-1.65-1.14-.66-2.06-1.55-2.76-2.67s-1.04-2.54-1.04-4.27.47-3.38,1.41-4.85c.94-1.47,2.38-2.64,4.31-3.53s4.38-1.32,7.36-1.32c1.95,0,3.88.25,5.8.74,1.92.5,3.59,1.21,5.01,2.13l-1.9,4.68c-1.45-.86-2.95-1.51-4.5-1.92-1.55-.42-3.03-.63-4.45-.63-1.64,0-2.98.2-4.04.6-1.05.4-1.82.94-2.3,1.6-.48.67-.72,1.4-.72,2.2,0,.99.35,1.79,1.05,2.39s1.61,1.07,2.74,1.41c1.13.34,2.39.67,3.78.98s2.77.67,4.13,1.09c1.36.42,2.61.96,3.76,1.62s2.06,1.55,2.76,2.64c.7,1.1,1.05,2.5,1.05,4.2s-.47,3.33-1.42,4.8c-.94,1.47-2.39,2.65-4.34,3.53-1.95.88-4.41,1.32-7.38,1.32Z"/>
          <path class="cls-2" d="M487.88,66.49v-32.47h6.03v32.47h-6.03Z"/>
          <path class="cls-2" d="M518.77,66.95c-2.53,0-4.86-.41-6.98-1.23-2.12-.82-3.97-1.99-5.54-3.5-1.58-1.51-2.8-3.28-3.67-5.29-.86-2.01-1.3-4.24-1.3-6.68s.43-4.67,1.3-6.68c.87-2.01,2.1-3.77,3.69-5.29,1.59-1.51,3.45-2.68,5.57-3.5,2.12-.82,4.48-1.23,7.07-1.23s5.19.45,7.4,1.34c2.21.9,4.07,2.21,5.59,3.94l-3.81,3.71c-1.27-1.27-2.64-2.2-4.11-2.81-1.47-.6-3.08-.91-4.85-.91s-3.32.28-4.75.84c-1.44.56-2.69,1.34-3.73,2.37-1.05,1.02-1.87,2.23-2.46,3.62-.59,1.39-.88,2.92-.88,4.59s.29,3.16.88,4.57c.59,1.41,1.41,2.62,2.46,3.64,1.05,1.02,2.29,1.81,3.71,2.37,1.42.56,3,.83,4.73.83,1.61,0,3.16-.26,4.66-.77,1.5-.51,2.93-1.37,4.29-2.57l3.38,4.5c-1.67,1.36-3.62,2.39-5.84,3.09s-4.5,1.04-6.82,1.04ZM531.44,62.82l-5.66-.79v-12.11h5.66v12.9Z"/>
          <path class="cls-2" d="M540.35,66.49v-32.47h4.96l20.36,25.05h-2.46v-25.05h5.94v32.47h-4.96l-20.32-25.05h2.46v25.05h-5.98Z"/>
          <path class="cls-2" d="M580.19,49.14c-1.08,0-1.99-.36-2.73-1.09-.74-.73-1.12-1.66-1.12-2.81s.37-2.06,1.12-2.76c.74-.7,1.65-1.04,2.73-1.04,1.02,0,1.9.35,2.64,1.04.74.7,1.12,1.62,1.12,2.76s-.37,2.08-1.12,2.81c-.74.73-1.62,1.09-2.64,1.09ZM580.19,66.81c-1.08,0-1.99-.36-2.73-1.09-.74-.73-1.12-1.66-1.12-2.81s.37-2.06,1.12-2.76c.74-.7,1.65-1.04,2.73-1.04,1.02,0,1.9.35,2.64,1.04.74.7,1.12,1.62,1.12,2.76s-.37,2.08-1.12,2.81c-.74.73-1.62,1.09-2.64,1.09Z"/>
          <path class="cls-2" d="M401.69,122.62c-2.53,0-4.86-.41-6.98-1.23-2.12-.82-3.97-1.99-5.54-3.5-1.58-1.51-2.8-3.28-3.67-5.29-.86-2.01-1.3-4.24-1.3-6.68s.43-4.67,1.3-6.68c.87-2.01,2.1-3.77,3.69-5.29,1.59-1.51,3.45-2.68,5.57-3.5,2.12-.82,4.48-1.23,7.07-1.23s5.19.45,7.4,1.34c2.21.9,4.07,2.21,5.59,3.94l-3.81,3.71c-1.27-1.27-2.64-2.2-4.11-2.81-1.47-.6-3.08-.91-4.85-.91s-3.32.28-4.75.84c-1.44.56-2.69,1.34-3.73,2.37-1.05,1.02-1.87,2.23-2.46,3.62-.59,1.39-.88,2.92-.88,4.59s.29,3.16.88,4.57c.59,1.41,1.41,2.62,2.46,3.64,1.05,1.02,2.29,1.81,3.71,2.37,1.42.56,3,.83,4.73.83,1.61,0,3.16-.26,4.66-.77,1.5-.51,2.93-1.37,4.29-2.57l3.38,4.5c-1.67,1.36-3.62,2.39-5.84,3.09s-4.5,1.04-6.82,1.04ZM414.35,118.49l-5.66-.79v-12.11h5.66v12.9Z"/>
          <path class="cls-2" d="M437.17,122.62c-4.42,0-7.89-1.25-10.41-3.76-2.52-2.5-3.78-6.14-3.78-10.9v-18.28h6.03v18.09c0,3.34.72,5.77,2.16,7.28,1.44,1.52,3.47,2.27,6.1,2.27s4.65-.76,6.08-2.27c1.42-1.51,2.14-3.94,2.14-7.28v-18.09h5.94v18.28c0,4.76-1.26,8.4-3.78,10.9-2.52,2.51-6.01,3.76-10.46,3.76Z"/>
          <path class="cls-2" d="M470.85,122.62c-2.53,0-4.95-.36-7.26-1.09s-4.15-1.66-5.54-2.81l2.09-4.69c1.3,1.02,2.91,1.87,4.82,2.55,1.92.68,3.88,1.02,5.89,1.02,1.7,0,3.08-.19,4.13-.56s1.83-.87,2.32-1.51c.5-.63.74-1.35.74-2.16,0-.99-.36-1.79-1.07-2.39-.71-.6-1.63-1.08-2.76-1.44s-2.38-.68-3.76-.98c-1.38-.29-2.75-.66-4.13-1.09-1.38-.43-2.64-.98-3.78-1.65-1.14-.66-2.06-1.55-2.76-2.67s-1.04-2.54-1.04-4.27.47-3.38,1.41-4.85c.94-1.47,2.38-2.64,4.31-3.53s4.38-1.32,7.36-1.32c1.95,0,3.88.25,5.8.74,1.92.5,3.59,1.21,5.01,2.13l-1.9,4.68c-1.45-.86-2.95-1.51-4.5-1.92-1.55-.42-3.03-.63-4.45-.63-1.64,0-2.98.2-4.04.6-1.05.4-1.82.94-2.3,1.6-.48.67-.72,1.4-.72,2.2,0,.99.35,1.79,1.05,2.39s1.61,1.07,2.74,1.41c1.13.34,2.39.67,3.78.98s2.77.67,4.13,1.09c1.36.42,2.61.96,3.76,1.62s2.06,1.55,2.76,2.64c.7,1.1,1.05,2.5,1.05,4.2s-.47,3.33-1.42,4.8c-.94,1.47-2.39,2.65-4.34,3.53-1.95.88-4.41,1.32-7.38,1.32Z"/>
          <path class="cls-2" d="M497.01,122.16v-27.37h-10.76v-5.1h27.56v5.1h-10.76v27.37h-6.03Z"/>
          <path class="cls-2" d="M513.07,122.16l14.61-32.47h5.94l14.66,32.47h-6.36l-12.52-29.27h2.41l-12.57,29.27h-6.17ZM519.8,114.64l1.67-4.73h17.49l1.62,4.73h-20.78Z"/>
          <path class="cls-2" d="M561.22,122.16l-14.2-32.47h6.54l12.66,29.36h-3.8l12.89-29.36h5.99l-14.15,32.47h-5.94Z"/>
          <path class="cls-2" d="M600.56,122.62c-2.5,0-4.83-.42-6.98-1.25-2.15-.84-4.01-2.01-5.59-3.53-1.58-1.52-2.8-3.29-3.67-5.31-.86-2.03-1.3-4.23-1.3-6.61s.43-4.63,1.3-6.66c.87-2.02,2.09-3.79,3.67-5.29,1.58-1.5,3.43-2.67,5.57-3.5,2.14-.83,4.47-1.25,7.01-1.25s4.82.41,6.96,1.23c2.14.82,3.98,1.98,5.54,3.48,1.56,1.5,2.78,3.27,3.64,5.31.86,2.04,1.3,4.27,1.3,6.68s-.43,4.63-1.3,6.66c-.87,2.03-2.08,3.8-3.64,5.31-1.56,1.52-3.41,2.68-5.54,3.5-2.13.82-4.45,1.23-6.96,1.23ZM600.56,117.33c1.64,0,3.15-.28,4.52-.83,1.38-.56,2.57-1.34,3.6-2.37,1.02-1.02,1.82-2.23,2.39-3.62s.86-2.92.86-4.59-.28-3.2-.83-4.59-1.35-2.6-2.39-3.62c-1.04-1.02-2.24-1.81-3.62-2.37-1.38-.56-2.89-.84-4.52-.84s-3.16.28-4.57.84c-1.41.56-2.62,1.35-3.64,2.39-1.02,1.04-1.83,2.24-2.41,3.62-.59,1.38-.88,2.9-.88,4.57s.29,3.15.88,4.55c.59,1.39,1.39,2.6,2.41,3.64,1.02,1.04,2.24,1.83,3.64,2.39,1.4.56,2.93.83,4.57.83Z"/>
          <path class="cls-2" d="M386.52,177.82v-32.47h6.03v32.47h-6.03ZM392.09,163.91v-5.15h17.72v5.15h-17.72ZM409.34,177.82v-32.47h5.98v32.47h-5.98Z"/>
          <path class="cls-2" d="M425.02,177.82v-32.47h6.03v32.47h-6.03Z"/>
          <path class="cls-2" d="M455.92,178.29c-2.53,0-4.86-.41-6.98-1.23-2.12-.82-3.97-1.99-5.54-3.5-1.58-1.51-2.8-3.28-3.67-5.29-.86-2.01-1.3-4.24-1.3-6.68s.43-4.67,1.3-6.68c.87-2.01,2.1-3.77,3.69-5.29,1.59-1.51,3.45-2.68,5.57-3.5,2.12-.82,4.48-1.23,7.07-1.23s5.19.45,7.4,1.34c2.21.9,4.07,2.21,5.59,3.94l-3.81,3.71c-1.27-1.27-2.64-2.2-4.11-2.81-1.47-.6-3.08-.91-4.85-.91s-3.32.28-4.75.84c-1.44.56-2.69,1.34-3.73,2.37-1.05,1.02-1.87,2.23-2.46,3.62-.59,1.39-.88,2.92-.88,4.59s.29,3.16.88,4.57c.59,1.41,1.41,2.62,2.46,3.64,1.05,1.02,2.29,1.81,3.71,2.37,1.42.56,3,.83,4.73.83,1.61,0,3.16-.26,4.66-.77,1.5-.51,2.93-1.37,4.29-2.57l3.38,4.5c-1.67,1.36-3.62,2.39-5.84,3.09s-4.5,1.04-6.82,1.04ZM468.58,174.16l-5.66-.79v-12.11h5.66v12.9Z"/>
          <path class="cls-2" d="M492.7,178.29c-2.5,0-4.83-.42-6.98-1.25-2.15-.84-4.01-2.01-5.59-3.53-1.58-1.52-2.8-3.29-3.67-5.31-.86-2.03-1.3-4.23-1.3-6.61s.43-4.63,1.3-6.66c.87-2.02,2.09-3.79,3.67-5.29,1.58-1.5,3.43-2.67,5.57-3.5,2.14-.83,4.47-1.25,7.01-1.25s4.82.41,6.96,1.23c2.14.82,3.98,1.98,5.54,3.48,1.56,1.5,2.78,3.27,3.64,5.31.86,2.04,1.3,4.27,1.3,6.68s-.43,4.63-1.3,6.66c-.87,2.03-2.08,3.8-3.64,5.31-1.56,1.52-3.41,2.68-5.54,3.5-2.13.82-4.45,1.23-6.96,1.23ZM492.7,173c1.64,0,3.15-.28,4.52-.83,1.38-.56,2.57-1.34,3.6-2.37,1.02-1.02,1.82-2.23,2.39-3.62s.86-2.92.86-4.59-.28-3.2-.83-4.59-1.35-2.6-2.39-3.62c-1.04-1.02-2.24-1.81-3.62-2.37-1.38-.56-2.89-.84-4.52-.84s-3.16.28-4.57.84c-1.41.56-2.62,1.35-3.64,2.39-1.02,1.04-1.83,2.24-2.41,3.62-.59,1.38-.88,2.9-.88,4.57s.29,3.15.88,4.55c.59,1.39,1.39,2.6,2.41,3.64,1.02,1.04,2.24,1.83,3.64,2.39,1.4.56,2.93.83,4.57.83ZM488.81,142.71l6.26-6.36h6.87l-8.12,6.36h-5.01Z"/>
          <path class="cls-2" d="M517.48,177.82v-32.47h4.96l20.36,25.05h-2.46v-25.05h5.94v32.47h-4.96l-20.32-25.05h2.46v25.05h-5.98Z"/>
        </g>
        <g>
          <path class="cls-1" d="M325.89,36.03C274.19,19.75,220.67,7.57,165.68,0,110.68,7.57,57.16,19.75,5.46,36.03,2.03,57.38,0,84.03,0,112.95s2.03,55.57,5.46,76.92c51.7,16.28,105.22,28.46,160.22,36.03,55-7.57,108.52-19.75,160.22-36.03,3.42-21.34,5.46-48,5.46-76.92s-2.03-55.57-5.46-76.92Z"/>
          <g class="cls-6">
            <rect class="cls-4" x="165.68" y="-5.29" width="177.89" height="236.47"/>
            <g>
              <polygon class="cls-5" points="45.61 100.95 45.61 136.1 45.61 151.4 55.36 154.59 115.67 174.34 115.67 151.78 60.71 105.68 45.61 100.95"/>
              <polygon class="cls-5" points="45.61 63.85 45.61 84.49 165.68 140.35 285.74 161.18 285.74 140.55 165.68 84.66 45.61 63.85"/>
              <polygon class="cls-5" points="275.99 70.44 215.68 50.7 215.68 73.25 270.64 119.35 285.74 124.09 285.74 88.94 285.74 73.64 275.99 70.44"/>
            </g>
          </g>
        </g>
      </g>
    </g>
  </g>
</svg>