<?xml version="1.0" encoding="UTF-8"?>
<svg xmlns="http://www.w3.org/2000/svg" xmlns:xlink="http://www.w3.org/1999/xlink" viewBox="0 0 522.95 456.63">
  <defs>
    <style>
      .cls-1 {
        fill: #b3cacc;
      }

      .cls-2 {
        fill: #6c7079;
      }

      .cls-3 {
        isolation: isolate;
      }

      .cls-4 {
        opacity: .16;
      }

      .cls-4, .cls-5 {
        mix-blend-mode: multiply;
      }

      .cls-6 {
        clip-path: url(#clippath);
      }

      .cls-5 {
        fill: #1a1a1a;
        opacity: .5;
      }
    </style>
    <clipPath id="clippath">
      <path class="cls-1" d="M465.04,52.12c-65.21-20.54-132.71-35.9-202.08-45.45C193.6,16.22,126.09,31.58,60.89,52.12c-4.32,26.92-6.88,60.54-6.88,97.01s2.57,70.09,6.88,97.01c65.21,20.53,132.71,35.89,202.08,45.45,69.36-9.55,136.87-24.91,202.08-45.45,4.32-26.92,6.88-60.54,6.88-97.01s-2.57-70.09-6.88-97.01Z"/>
    </clipPath>
  </defs>
  <g class="cls-3">
    <g id="Capa_1" data-name="Capa 1">
      <g>
        <path class="cls-2" d="M140.04,385.84v-40.96h17.96c4.37,0,8.24.85,11.61,2.54,3.37,1.7,6,4.09,7.87,7.17,1.87,3.08,2.81,6.67,2.81,10.77s-.94,7.69-2.81,10.77c-1.87,3.08-4.5,5.47-7.87,7.17-3.37,1.7-7.25,2.54-11.61,2.54h-17.96ZM147.65,379.4h9.89c3.08,0,5.74-.59,7.99-1.76,2.24-1.17,4-2.81,5.27-4.92,1.27-2.11,1.9-4.56,1.9-7.37s-.63-5.36-1.9-7.43c-1.27-2.07-3.02-3.69-5.27-4.86-2.24-1.17-4.91-1.76-7.99-1.76h-9.89v28.08Z"/>
        <path class="cls-2" d="M189.54,385.84v-40.96h29.9v6.44h-22.29v28.08h23.11v6.44h-30.72ZM196.56,368.17v-6.26h20.36v6.26h-20.36Z"/>
        <path class="cls-2" d="M242.61,386.42c-3.2,0-6.25-.46-9.16-1.38-2.91-.92-5.24-2.1-6.99-3.54l2.63-5.91c1.64,1.29,3.67,2.36,6.08,3.22,2.42.86,4.89,1.29,7.43,1.29,2.15,0,3.88-.23,5.21-.7,1.33-.47,2.3-1.1,2.93-1.9.62-.8.94-1.71.94-2.72,0-1.25-.45-2.25-1.35-3.01-.9-.76-2.06-1.37-3.48-1.81-1.42-.45-3-.86-4.74-1.23-1.74-.37-3.47-.83-5.21-1.38-1.74-.55-3.33-1.24-4.77-2.08-1.44-.84-2.6-1.96-3.48-3.36-.88-1.4-1.32-3.2-1.32-5.38s.59-4.26,1.78-6.11c1.19-1.85,3-3.33,5.44-4.45,2.44-1.11,5.53-1.67,9.27-1.67,2.46,0,4.9.31,7.31.94,2.42.62,4.52,1.52,6.32,2.69l-2.4,5.91c-1.83-1.09-3.73-1.9-5.68-2.43-1.95-.53-3.82-.79-5.62-.79-2.07,0-3.76.25-5.09.76-1.33.51-2.29,1.18-2.9,2.02-.6.84-.91,1.77-.91,2.78,0,1.25.44,2.25,1.32,3.01.88.76,2.03,1.36,3.45,1.79,1.42.43,3.01.84,4.77,1.23,1.76.39,3.49.85,5.21,1.38,1.72.53,3.3,1.21,4.74,2.05,1.44.84,2.6,1.95,3.48,3.33.88,1.38,1.32,3.15,1.32,5.29s-.6,4.2-1.78,6.06c-1.19,1.85-3.01,3.33-5.47,4.45-2.46,1.11-5.56,1.67-9.3,1.67Z"/>
        <path class="cls-2" d="M267.88,385.84v-40.96h7.61v40.96h-7.61Z"/>
        <path class="cls-2" d="M306.85,386.42c-3.2,0-6.13-.52-8.81-1.55-2.67-1.03-5-2.51-6.99-4.42s-3.53-4.13-4.62-6.67c-1.09-2.54-1.64-5.34-1.64-8.43s.55-5.89,1.64-8.42c1.09-2.54,2.64-4.76,4.65-6.67,2.01-1.91,4.35-3.38,7.02-4.42,2.67-1.03,5.65-1.55,8.92-1.55s6.54.57,9.33,1.7c2.79,1.13,5.14,2.79,7.05,4.97l-4.8,4.68c-1.6-1.6-3.33-2.78-5.18-3.54-1.85-.76-3.89-1.14-6.11-1.14s-4.18.35-6,1.05c-1.81.7-3.38,1.7-4.71,2.98-1.33,1.29-2.36,2.81-3.1,4.56-.74,1.75-1.11,3.69-1.11,5.79s.37,3.99,1.11,5.76c.74,1.78,1.77,3.31,3.1,4.59,1.33,1.29,2.89,2.28,4.68,2.98,1.79.7,3.78,1.05,5.97,1.05,2.03,0,3.99-.32,5.88-.97,1.89-.64,3.7-1.73,5.41-3.25l4.27,5.68c-2.11,1.72-4.56,3.01-7.37,3.89s-5.68,1.32-8.6,1.32ZM322.82,381.22l-7.14-1v-15.27h7.14v16.27Z"/>
        <path class="cls-2" d="M334.06,385.84v-40.96h6.26l25.69,31.59h-3.1v-31.59h7.49v40.96h-6.26l-25.63-31.59h3.1v31.59h-7.55Z"/>
        <path class="cls-2" d="M384.31,363.95c-1.37,0-2.52-.46-3.45-1.38-.94-.92-1.4-2.1-1.4-3.54s.47-2.6,1.4-3.48c.94-.88,2.09-1.32,3.45-1.32,1.29,0,2.4.44,3.33,1.32.94.88,1.4,2.04,1.4,3.48s-.47,2.62-1.4,3.54c-.94.92-2.05,1.38-3.33,1.38ZM384.31,386.25c-1.37,0-2.52-.46-3.45-1.38-.94-.92-1.4-2.1-1.4-3.54s.47-2.6,1.4-3.48c.94-.88,2.09-1.32,3.45-1.32,1.29,0,2.4.44,3.33,1.32.94.88,1.4,2.04,1.4,3.48s-.47,2.62-1.4,3.54c-.94.92-2.05,1.38-3.33,1.38Z"/>
        <path class="cls-2" d="M22.06,456.63c-3.2,0-6.13-.52-8.81-1.55-2.67-1.03-5-2.51-6.99-4.42s-3.53-4.13-4.62-6.67c-1.09-2.54-1.64-5.34-1.64-8.43s.55-5.89,1.64-8.42c1.09-2.54,2.64-4.76,4.65-6.67,2.01-1.91,4.35-3.38,7.02-4.42,2.67-1.03,5.65-1.55,8.92-1.55s6.54.57,9.33,1.7c2.79,1.13,5.14,2.79,7.05,4.97l-4.8,4.68c-1.6-1.6-3.33-2.78-5.18-3.54-1.85-.76-3.89-1.14-6.11-1.14s-4.18.35-6,1.05c-1.81.7-3.38,1.7-4.71,2.98-1.33,1.29-2.36,2.81-3.1,4.56-.74,1.75-1.11,3.69-1.11,5.79s.37,3.99,1.11,5.76c.74,1.78,1.77,3.31,3.1,4.59,1.33,1.29,2.89,2.28,4.68,2.98,1.79.7,3.78,1.05,5.97,1.05,2.03,0,3.99-.32,5.88-.97,1.89-.64,3.7-1.73,5.41-3.25l4.27,5.68c-2.11,1.72-4.56,3.01-7.37,3.89-2.81.88-5.68,1.32-8.6,1.32ZM38.03,451.43l-7.14-1v-15.27h7.14v16.27Z"/>
        <path class="cls-2" d="M66.82,456.63c-5.58,0-9.96-1.58-13.14-4.74-3.18-3.16-4.77-7.74-4.77-13.75v-23.05h7.61v22.82c0,4.21.91,7.28,2.72,9.19,1.81,1.91,4.38,2.87,7.69,2.87s5.87-.96,7.67-2.87c1.79-1.91,2.69-4.97,2.69-9.19v-22.82h7.49v23.05c0,6.01-1.59,10.59-4.77,13.75-3.18,3.16-7.58,4.74-13.19,4.74Z"/>
        <path class="cls-2" d="M109.29,456.63c-3.2,0-6.25-.46-9.16-1.38-2.91-.92-5.24-2.1-6.99-3.54l2.63-5.91c1.64,1.29,3.67,2.36,6.08,3.22,2.42.86,4.89,1.29,7.43,1.29,2.15,0,3.88-.23,5.21-.7,1.33-.47,2.3-1.1,2.93-1.9.62-.8.94-1.71.94-2.72,0-1.25-.45-2.25-1.35-3.01-.9-.76-2.06-1.37-3.48-1.81-1.42-.45-3-.86-4.74-1.23-1.74-.37-3.47-.83-5.21-1.38-1.74-.55-3.33-1.24-4.77-2.08-1.44-.84-2.6-1.96-3.48-3.36-.88-1.4-1.32-3.2-1.32-5.38s.59-4.26,1.78-6.11c1.19-1.85,3-3.33,5.44-4.45,2.44-1.11,5.53-1.67,9.27-1.67,2.46,0,4.9.31,7.31.94,2.42.62,4.52,1.52,6.32,2.69l-2.4,5.91c-1.83-1.09-3.73-1.9-5.68-2.43-1.95-.53-3.82-.79-5.62-.79-2.07,0-3.76.25-5.09.76-1.33.51-2.29,1.18-2.9,2.02-.6.84-.91,1.77-.91,2.78,0,1.25.44,2.25,1.32,3.01.88.76,2.03,1.36,3.45,1.79,1.42.43,3.01.84,4.77,1.23,1.76.39,3.49.85,5.21,1.38,1.72.53,3.3,1.21,4.74,2.05,1.44.84,2.6,1.95,3.48,3.33.88,1.38,1.32,3.15,1.32,5.29s-.6,4.2-1.78,6.06c-1.19,1.85-3.01,3.33-5.47,4.45-2.46,1.11-5.56,1.67-9.3,1.67Z"/>
        <path class="cls-2" d="M142.29,456.05v-34.52h-13.57v-6.44h34.75v6.44h-13.57v34.52h-7.61Z"/>
        <path class="cls-2" d="M162.54,456.05l18.43-40.96h7.49l18.49,40.96h-8.02l-15.8-36.92h3.04l-15.86,36.92h-7.78ZM171.02,446.57l2.11-5.97h22.06l2.05,5.97h-26.21Z"/>
        <path class="cls-2" d="M223.27,456.05l-17.9-40.96h8.25l15.97,37.04h-4.8l16.27-37.04h7.55l-17.85,40.96h-7.49Z"/>
        <path class="cls-2" d="M272.89,456.63c-3.16,0-6.09-.53-8.81-1.58-2.71-1.05-5.06-2.53-7.05-4.45-1.99-1.91-3.53-4.14-4.62-6.7-1.09-2.55-1.64-5.33-1.64-8.34s.55-5.84,1.64-8.4c1.09-2.55,2.63-4.78,4.62-6.67s4.33-3.36,7.02-4.42c2.69-1.05,5.64-1.58,8.83-1.58s6.08.52,8.78,1.55c2.69,1.03,5.02,2.5,6.99,4.39,1.97,1.89,3.5,4.12,4.59,6.7s1.64,5.38,1.64,8.42-.55,5.84-1.64,8.4-2.62,4.79-4.59,6.7-4.3,3.38-6.99,4.42c-2.69,1.03-5.62,1.55-8.78,1.55ZM272.89,449.96c2.07,0,3.97-.35,5.71-1.05,1.74-.7,3.25-1.7,4.53-2.98s2.29-2.81,3.01-4.56c.72-1.76,1.08-3.69,1.08-5.79s-.35-4.04-1.05-5.79c-.7-1.76-1.71-3.28-3.01-4.56s-2.83-2.28-4.56-2.98c-1.74-.7-3.64-1.05-5.71-1.05s-3.99.35-5.76,1.05c-1.78.7-3.31,1.71-4.59,3.01-1.29,1.31-2.3,2.83-3.04,4.56-.74,1.74-1.11,3.66-1.11,5.76s.37,3.98,1.11,5.73c.74,1.75,1.75,3.29,3.04,4.59,1.29,1.31,2.82,2.31,4.59,3.01,1.77.7,3.7,1.05,5.76,1.05Z"/>
        <path class="cls-2" d="M321.45,456.05v-40.96h7.61v40.96h-7.61ZM328.47,438.5v-6.49h22.35v6.49h-22.35ZM350.23,456.05v-40.96h7.55v40.96h-7.55Z"/>
        <path class="cls-2" d="M370.01,456.05v-40.96h7.61v40.96h-7.61Z"/>
        <path class="cls-2" d="M408.98,456.63c-3.2,0-6.13-.52-8.81-1.55-2.67-1.03-5-2.51-6.99-4.42s-3.53-4.13-4.62-6.67c-1.09-2.54-1.64-5.34-1.64-8.43s.55-5.89,1.64-8.42c1.09-2.54,2.64-4.76,4.65-6.67,2.01-1.91,4.35-3.38,7.02-4.42,2.67-1.03,5.65-1.55,8.92-1.55s6.54.57,9.33,1.7c2.79,1.13,5.14,2.79,7.05,4.97l-4.8,4.68c-1.6-1.6-3.33-2.78-5.18-3.54-1.85-.76-3.89-1.14-6.11-1.14s-4.18.35-6,1.05c-1.81.7-3.38,1.7-4.71,2.98-1.33,1.29-2.36,2.81-3.1,4.56-.74,1.75-1.11,3.69-1.11,5.79s.37,3.99,1.11,5.76c.74,1.78,1.77,3.31,3.1,4.59,1.33,1.29,2.89,2.28,4.68,2.98,1.79.7,3.78,1.05,5.97,1.05,2.03,0,3.99-.32,5.88-.97,1.89-.64,3.7-1.73,5.41-3.25l4.27,5.68c-2.11,1.72-4.56,3.01-7.37,3.89s-5.68,1.32-8.6,1.32ZM424.95,451.43l-7.14-1v-15.27h7.14v16.27Z"/>
        <path class="cls-2" d="M455.37,456.63c-3.16,0-6.09-.53-8.81-1.58-2.71-1.05-5.06-2.53-7.05-4.45-1.99-1.91-3.53-4.14-4.62-6.7-1.09-2.55-1.64-5.33-1.64-8.34s.55-5.84,1.64-8.4c1.09-2.55,2.63-4.78,4.62-6.67s4.33-3.36,7.02-4.42c2.69-1.05,5.64-1.58,8.83-1.58s6.08.52,8.78,1.55c2.69,1.03,5.02,2.5,6.99,4.39,1.97,1.89,3.5,4.12,4.59,6.7s1.64,5.38,1.64,8.42-.55,5.84-1.64,8.4-2.62,4.79-4.59,6.7-4.3,3.38-6.99,4.42c-2.69,1.03-5.62,1.55-8.78,1.55ZM455.37,449.96c2.07,0,3.97-.35,5.71-1.05,1.74-.7,3.25-1.7,4.53-2.98s2.29-2.81,3.01-4.56c.72-1.76,1.08-3.69,1.08-5.79s-.35-4.04-1.05-5.79c-.7-1.76-1.71-3.28-3.01-4.56s-2.83-2.28-4.56-2.98c-1.74-.7-3.64-1.05-5.71-1.05s-3.99.35-5.76,1.05c-1.78.7-3.31,1.71-4.59,3.01s-2.3,2.83-3.04,4.56c-.74,1.74-1.11,3.66-1.11,5.76s.37,3.98,1.11,5.73c.74,1.75,1.76,3.29,3.04,4.59,1.29,1.31,2.82,2.31,4.59,3.01,1.77.7,3.7,1.05,5.76,1.05ZM450.46,411.76l7.9-8.02h8.66l-10.24,8.02h-6.32Z"/>
        <path class="cls-2" d="M486.62,456.05v-40.96h6.26l25.69,31.59h-3.1v-31.59h7.49v40.96h-6.26l-25.63-31.59h3.1v31.59h-7.55Z"/>
      </g>
      <g>
        <path class="cls-1" d="M465.04,52.12c-65.21-20.54-132.71-35.9-202.08-45.45C193.6,16.22,126.09,31.58,60.89,52.12c-4.32,26.92-6.88,60.54-6.88,97.01s2.57,70.09,6.88,97.01c65.21,20.53,132.71,35.89,202.08,45.45,69.36-9.55,136.87-24.91,202.08-45.45,4.32-26.92,6.88-60.54,6.88-97.01s-2.57-70.09-6.88-97.01Z"/>
        <g class="cls-6">
          <rect class="cls-4" x="262.96" width="224.36" height="298.26"/>
          <g>
            <polygon class="cls-5" points="111.53 133.99 111.53 178.32 111.53 197.62 123.83 201.65 199.89 226.55 199.89 198.11 130.58 139.96 111.53 133.99"/>
            <polygon class="cls-5" points="111.53 87.2 111.53 113.23 262.96 183.69 414.4 209.96 414.4 183.94 262.96 113.45 111.53 87.2"/>
            <polygon class="cls-5" points="402.1 95.52 326.04 70.61 326.04 99.06 395.35 157.2 414.4 163.18 414.4 118.84 414.4 99.54 402.1 95.52"/>
          </g>
        </g>
      </g>
    </g>
  </g>
</svg>